%TF.GenerationSoftware,KiCad,Pcbnew,7.0.6*%
%TF.CreationDate,2023-12-18T10:17:45+05:30*%
%TF.ProjectId,new12vch,6e657731-3276-4636-982e-6b696361645f,rev?*%
%TF.SameCoordinates,Original*%
%TF.FileFunction,Soldermask,Bot*%
%TF.FilePolarity,Negative*%
%FSLAX46Y46*%
G04 Gerber Fmt 4.6, Leading zero omitted, Abs format (unit mm)*
G04 Created by KiCad (PCBNEW 7.0.6) date 2023-12-18 10:17:45*
%MOMM*%
%LPD*%
G01*
G04 APERTURE LIST*
%ADD10R,1.800000X1.800000*%
%ADD11O,1.800000X2.000000*%
%ADD12C,1.600000*%
%ADD13O,1.600000X1.600000*%
%ADD14O,1.800000X1.900000*%
%ADD15O,2.100000X1.500000*%
%ADD16C,4.000000*%
%ADD17C,1.440000*%
%ADD18R,2.400000X1.600000*%
%ADD19O,2.400000X1.600000*%
%ADD20O,2.200000X2.600000*%
G04 APERTURE END LIST*
D10*
%TO.C,D8*%
X154850000Y-112700000D03*
D11*
X152310000Y-112700000D03*
%TD*%
D12*
%TO.C,R8*%
X159980000Y-85300000D03*
D13*
X167600000Y-85300000D03*
%TD*%
D10*
%TO.C,D2*%
X154850000Y-132200000D03*
D11*
X152310000Y-132200000D03*
%TD*%
D10*
%TO.C,D12*%
X154850000Y-106200000D03*
D11*
X152310000Y-106200000D03*
%TD*%
D12*
%TO.C,R7*%
X159980000Y-89100000D03*
D13*
X167600000Y-89100000D03*
%TD*%
D10*
%TO.C,D18*%
X154850000Y-86700000D03*
D11*
X152310000Y-86700000D03*
%TD*%
D10*
%TO.C,D23*%
X154850000Y-73700000D03*
D11*
X152310000Y-73700000D03*
%TD*%
D14*
%TO.C,D14*%
X154850000Y-99700000D03*
D11*
X152310000Y-99700000D03*
%TD*%
D15*
%TO.C,SW3*%
X170350000Y-88500000D03*
X170350000Y-85960000D03*
%TD*%
D16*
%TO.C,REF\u002A\u002A*%
X171300000Y-132950000D03*
%TD*%
%TO.C,REF\u002A\u002A*%
X171300000Y-73000000D03*
%TD*%
D10*
%TO.C,D4*%
X154850000Y-125700000D03*
D11*
X152310000Y-125700000D03*
%TD*%
D10*
%TO.C,D6*%
X154850000Y-119200000D03*
D11*
X152310000Y-119200000D03*
%TD*%
D10*
%TO.C,D16*%
X154850000Y-93200000D03*
D11*
X152310000Y-93200000D03*
%TD*%
D17*
%TO.C,RV2*%
X163350000Y-119150000D03*
X163350000Y-121690000D03*
X163350000Y-124230000D03*
%TD*%
D18*
%TO.C,U1*%
X166850000Y-113100000D03*
D19*
X166850000Y-110560000D03*
X166850000Y-108020000D03*
X166850000Y-105480000D03*
X166850000Y-102940000D03*
X166850000Y-100400000D03*
X166850000Y-97860000D03*
X166850000Y-95320000D03*
X166850000Y-92780000D03*
D13*
X159230000Y-92780000D03*
D19*
X159230000Y-95320000D03*
X159230000Y-97860000D03*
X159230000Y-100400000D03*
X159230000Y-102940000D03*
X159230000Y-105480000D03*
X159230000Y-108020000D03*
X159230000Y-110560000D03*
D13*
X159230000Y-113100000D03*
%TD*%
D10*
%TO.C,D21*%
X154850000Y-80200000D03*
D11*
X152310000Y-80200000D03*
%TD*%
D12*
%TO.C,R1*%
X159600000Y-129650000D03*
D13*
X167220000Y-129650000D03*
%TD*%
D20*
%TO.C,J5*%
X160850000Y-77900000D03*
X165850000Y-77900000D03*
%TD*%
D10*
%TO.C,D6*%
X179850000Y-119200000D03*
D11*
X177310000Y-119200000D03*
%TD*%
D10*
%TO.C,D2*%
X179850000Y-132200000D03*
D11*
X177310000Y-132200000D03*
%TD*%
D10*
%TO.C,D4*%
X179850000Y-125700000D03*
D11*
X177310000Y-125700000D03*
%TD*%
D10*
%TO.C,D8*%
X179850000Y-112700000D03*
D11*
X177310000Y-112700000D03*
%TD*%
D10*
%TO.C,D23*%
X179850000Y-73700000D03*
D11*
X177310000Y-73700000D03*
%TD*%
D14*
%TO.C,D14*%
X179850000Y-99700000D03*
D11*
X177310000Y-99700000D03*
%TD*%
D10*
%TO.C,D12*%
X179850000Y-106200000D03*
D11*
X177310000Y-106200000D03*
%TD*%
D10*
%TO.C,D18*%
X179850000Y-86700000D03*
D11*
X177310000Y-86700000D03*
%TD*%
D15*
%TO.C,SW3*%
X195350000Y-88500000D03*
X195350000Y-85960000D03*
%TD*%
D16*
%TO.C,REF\u002A\u002A*%
X196300000Y-132950000D03*
%TD*%
%TO.C,REF\u002A\u002A*%
X196300000Y-73000000D03*
%TD*%
D12*
%TO.C,R8*%
X184980000Y-85300000D03*
D13*
X192600000Y-85300000D03*
%TD*%
D12*
%TO.C,R7*%
X184980000Y-89100000D03*
D13*
X192600000Y-89100000D03*
%TD*%
D10*
%TO.C,D16*%
X179850000Y-93200000D03*
D11*
X177310000Y-93200000D03*
%TD*%
D18*
%TO.C,U1*%
X191850000Y-113100000D03*
D19*
X191850000Y-110560000D03*
X191850000Y-108020000D03*
X191850000Y-105480000D03*
X191850000Y-102940000D03*
X191850000Y-100400000D03*
X191850000Y-97860000D03*
X191850000Y-95320000D03*
X191850000Y-92780000D03*
D13*
X184230000Y-92780000D03*
D19*
X184230000Y-95320000D03*
X184230000Y-97860000D03*
X184230000Y-100400000D03*
X184230000Y-102940000D03*
X184230000Y-105480000D03*
X184230000Y-108020000D03*
X184230000Y-110560000D03*
D13*
X184230000Y-113100000D03*
%TD*%
D10*
%TO.C,D21*%
X179850000Y-80200000D03*
D11*
X177310000Y-80200000D03*
%TD*%
D17*
%TO.C,RV2*%
X188350000Y-119150000D03*
X188350000Y-121690000D03*
X188350000Y-124230000D03*
%TD*%
D12*
%TO.C,R1*%
X184600000Y-129650000D03*
D13*
X192220000Y-129650000D03*
%TD*%
D20*
%TO.C,J5*%
X185850000Y-77900000D03*
X190850000Y-77900000D03*
%TD*%
D10*
%TO.C,D6*%
X104850000Y-119200000D03*
D11*
X102310000Y-119200000D03*
%TD*%
D10*
%TO.C,D2*%
X104850000Y-132200000D03*
D11*
X102310000Y-132200000D03*
%TD*%
D10*
%TO.C,D4*%
X104850000Y-125700000D03*
D11*
X102310000Y-125700000D03*
%TD*%
D10*
%TO.C,D8*%
X104850000Y-112700000D03*
D11*
X102310000Y-112700000D03*
%TD*%
D10*
%TO.C,D23*%
X104850000Y-73700000D03*
D11*
X102310000Y-73700000D03*
%TD*%
D14*
%TO.C,D14*%
X104850000Y-99700000D03*
D11*
X102310000Y-99700000D03*
%TD*%
D10*
%TO.C,D12*%
X104850000Y-106200000D03*
D11*
X102310000Y-106200000D03*
%TD*%
D10*
%TO.C,D18*%
X104850000Y-86700000D03*
D11*
X102310000Y-86700000D03*
%TD*%
D15*
%TO.C,SW3*%
X120350000Y-88500000D03*
X120350000Y-85960000D03*
%TD*%
D16*
%TO.C,REF\u002A\u002A*%
X121300000Y-132950000D03*
%TD*%
%TO.C,REF\u002A\u002A*%
X121300000Y-73000000D03*
%TD*%
D12*
%TO.C,R8*%
X109980000Y-85300000D03*
D13*
X117600000Y-85300000D03*
%TD*%
D12*
%TO.C,R7*%
X109980000Y-89100000D03*
D13*
X117600000Y-89100000D03*
%TD*%
D10*
%TO.C,D16*%
X104850000Y-93200000D03*
D11*
X102310000Y-93200000D03*
%TD*%
D18*
%TO.C,U1*%
X116850000Y-113100000D03*
D19*
X116850000Y-110560000D03*
X116850000Y-108020000D03*
X116850000Y-105480000D03*
X116850000Y-102940000D03*
X116850000Y-100400000D03*
X116850000Y-97860000D03*
X116850000Y-95320000D03*
X116850000Y-92780000D03*
D13*
X109230000Y-92780000D03*
D19*
X109230000Y-95320000D03*
X109230000Y-97860000D03*
X109230000Y-100400000D03*
X109230000Y-102940000D03*
X109230000Y-105480000D03*
X109230000Y-108020000D03*
X109230000Y-110560000D03*
D13*
X109230000Y-113100000D03*
%TD*%
D10*
%TO.C,D21*%
X104850000Y-80200000D03*
D11*
X102310000Y-80200000D03*
%TD*%
D17*
%TO.C,RV2*%
X113350000Y-119150000D03*
X113350000Y-121690000D03*
X113350000Y-124230000D03*
%TD*%
D12*
%TO.C,R1*%
X109600000Y-129650000D03*
D13*
X117220000Y-129650000D03*
%TD*%
D20*
%TO.C,J5*%
X110850000Y-77900000D03*
X115850000Y-77900000D03*
%TD*%
D10*
%TO.C,D2*%
X129850000Y-132200000D03*
D11*
X127310000Y-132200000D03*
%TD*%
D10*
%TO.C,D4*%
X129850000Y-125700000D03*
D11*
X127310000Y-125700000D03*
%TD*%
D10*
%TO.C,D6*%
X129850000Y-119200000D03*
D11*
X127310000Y-119200000D03*
%TD*%
D10*
%TO.C,D8*%
X129850000Y-112700000D03*
D11*
X127310000Y-112700000D03*
%TD*%
D10*
%TO.C,D12*%
X129850000Y-106200000D03*
D11*
X127310000Y-106200000D03*
%TD*%
D14*
%TO.C,D14*%
X129850000Y-99700000D03*
D11*
X127310000Y-99700000D03*
%TD*%
D10*
%TO.C,D16*%
X129850000Y-93200000D03*
D11*
X127310000Y-93200000D03*
%TD*%
D10*
%TO.C,D18*%
X129850000Y-86700000D03*
D11*
X127310000Y-86700000D03*
%TD*%
D10*
%TO.C,D21*%
X129850000Y-80200000D03*
D11*
X127310000Y-80200000D03*
%TD*%
D10*
%TO.C,D23*%
X129850000Y-73700000D03*
D11*
X127310000Y-73700000D03*
%TD*%
D20*
%TO.C,J5*%
X135850000Y-77900000D03*
X140850000Y-77900000D03*
%TD*%
D12*
%TO.C,R1*%
X134600000Y-129650000D03*
D13*
X142220000Y-129650000D03*
%TD*%
D12*
%TO.C,R7*%
X134980000Y-89100000D03*
D13*
X142600000Y-89100000D03*
%TD*%
D12*
%TO.C,R8*%
X134980000Y-85300000D03*
D13*
X142600000Y-85300000D03*
%TD*%
D17*
%TO.C,RV2*%
X138350000Y-119150000D03*
X138350000Y-121690000D03*
X138350000Y-124230000D03*
%TD*%
D18*
%TO.C,U1*%
X141850000Y-113100000D03*
D19*
X141850000Y-110560000D03*
X141850000Y-108020000D03*
X141850000Y-105480000D03*
X141850000Y-102940000D03*
X141850000Y-100400000D03*
X141850000Y-97860000D03*
X141850000Y-95320000D03*
X141850000Y-92780000D03*
D13*
X134230000Y-92780000D03*
D19*
X134230000Y-95320000D03*
X134230000Y-97860000D03*
X134230000Y-100400000D03*
X134230000Y-102940000D03*
X134230000Y-105480000D03*
X134230000Y-108020000D03*
X134230000Y-110560000D03*
D13*
X134230000Y-113100000D03*
%TD*%
D15*
%TO.C,SW3*%
X145350000Y-88500000D03*
X145350000Y-85960000D03*
%TD*%
D16*
%TO.C,REF\u002A\u002A*%
X146300000Y-73000000D03*
%TD*%
%TO.C,REF\u002A\u002A*%
X146300000Y-132950000D03*
%TD*%
M02*
