M48
; DRILL file {KiCad 7.0.6} date Mon Dec 18 10:17:48 2023
; FORMAT={-:-/ absolute / inch / decimal}
; #@! TF.CreationDate,2023-12-18T10:17:48+05:30
; #@! TF.GenerationSoftware,Kicad,Pcbnew,7.0.6
; #@! TF.FileFunction,Plated,1,2,PTH
FMAT,2
INCH
; #@! TA.AperFunction,Plated,PTH,ComponentDrill
T1C0.0315
; #@! TA.AperFunction,Plated,PTH,ComponentDrill
T2C0.0354
; #@! TA.AperFunction,Plated,PTH,ComponentDrill
T3C0.0472
; #@! TA.AperFunction,Plated,PTH,ComponentDrill
T4C0.1181
%
G90
G05
T1
X4.3004Y-3.6528
X4.3004Y-3.7528
X4.3004Y-3.8528
X4.3004Y-3.9528
X4.3004Y-4.0528
X4.3004Y-4.1528
X4.3004Y-4.2528
X4.3004Y-4.3528
X4.3004Y-4.4528
X4.315Y-5.1043
X4.3299Y-3.3583
X4.3299Y-3.5079
X4.4626Y-4.6909
X4.4626Y-4.7909
X4.4626Y-4.8909
X4.6004Y-3.6528
X4.6004Y-3.7528
X4.6004Y-3.8528
X4.6004Y-3.9528
X4.6004Y-4.0528
X4.6004Y-4.1528
X4.6004Y-4.2528
X4.6004Y-4.3528
X4.6004Y-4.4528
X4.615Y-5.1043
X4.6299Y-3.3583
X4.6299Y-3.5079
X5.2846Y-3.6528
X5.2846Y-3.7528
X5.2846Y-3.8528
X5.2846Y-3.9528
X5.2846Y-4.0528
X5.2846Y-4.1528
X5.2846Y-4.2528
X5.2846Y-4.3528
X5.2846Y-4.4528
X5.2992Y-5.1043
X5.3142Y-3.3583
X5.3142Y-3.5079
X5.4469Y-4.6909
X5.4469Y-4.7909
X5.4469Y-4.8909
X5.5846Y-3.6528
X5.5846Y-3.7528
X5.5846Y-3.8528
X5.5846Y-3.9528
X5.5846Y-4.0528
X5.5846Y-4.1528
X5.5846Y-4.2528
X5.5846Y-4.3528
X5.5846Y-4.4528
X5.5992Y-5.1043
X5.6142Y-3.3583
X5.6142Y-3.5079
X6.2689Y-3.6528
X6.2689Y-3.7528
X6.2689Y-3.8528
X6.2689Y-3.9528
X6.2689Y-4.0528
X6.2689Y-4.1528
X6.2689Y-4.2528
X6.2689Y-4.3528
X6.2689Y-4.4528
X6.2835Y-5.1043
X6.2984Y-3.3583
X6.2984Y-3.5079
X6.4311Y-4.6909
X6.4311Y-4.7909
X6.4311Y-4.8909
X6.5689Y-3.6528
X6.5689Y-3.7528
X6.5689Y-3.8528
X6.5689Y-3.9528
X6.5689Y-4.0528
X6.5689Y-4.1528
X6.5689Y-4.2528
X6.5689Y-4.3528
X6.5689Y-4.4528
X6.5835Y-5.1043
X6.5984Y-3.3583
X6.5984Y-3.5079
X7.2531Y-3.6528
X7.2531Y-3.7528
X7.2531Y-3.8528
X7.2531Y-3.9528
X7.2531Y-4.0528
X7.2531Y-4.1528
X7.2531Y-4.2528
X7.2531Y-4.3528
X7.2531Y-4.4528
X7.2677Y-5.1043
X7.2827Y-3.3583
X7.2827Y-3.5079
X7.4154Y-4.6909
X7.4154Y-4.7909
X7.4154Y-4.8909
X7.5531Y-3.6528
X7.5531Y-3.7528
X7.5531Y-3.8528
X7.5531Y-3.9528
X7.5531Y-4.0528
X7.5531Y-4.1528
X7.5531Y-4.2528
X7.5531Y-4.3528
X7.5531Y-4.4528
X7.5677Y-5.1043
X7.5827Y-3.3583
X7.5827Y-3.5079
T2
X4.028Y-2.9016
X4.028Y-3.1575
X4.028Y-3.4134
X4.028Y-3.6693
X4.028Y-3.9252
X4.028Y-4.1811
X4.028Y-4.437
X4.028Y-4.6929
X4.028Y-4.9488
X4.028Y-5.2047
X4.128Y-2.9016
X4.128Y-3.1575
X4.128Y-3.4134
X4.128Y-3.6693
X4.128Y-3.9252
X4.128Y-4.1811
X4.128Y-4.437
X4.128Y-4.6929
X4.128Y-4.9488
X4.128Y-5.2047
X4.7382Y-3.3843
X4.7382Y-3.4843
X5.0122Y-2.9016
X5.0122Y-3.1575
X5.0122Y-3.4134
X5.0122Y-3.6693
X5.0122Y-3.9252
X5.0122Y-4.1811
X5.0122Y-4.437
X5.0122Y-4.6929
X5.0122Y-4.9488
X5.0122Y-5.2047
X5.1122Y-2.9016
X5.1122Y-3.1575
X5.1122Y-3.4134
X5.1122Y-3.6693
X5.1122Y-3.9252
X5.1122Y-4.1811
X5.1122Y-4.437
X5.1122Y-4.6929
X5.1122Y-4.9488
X5.1122Y-5.2047
X5.7224Y-3.3843
X5.7224Y-3.4843
X5.9965Y-2.9016
X5.9965Y-3.1575
X5.9965Y-3.4134
X5.9965Y-3.6693
X5.9965Y-3.9252
X5.9965Y-4.1811
X5.9965Y-4.437
X5.9965Y-4.6929
X5.9965Y-4.9488
X5.9965Y-5.2047
X6.0965Y-2.9016
X6.0965Y-3.1575
X6.0965Y-3.4134
X6.0965Y-3.6693
X6.0965Y-3.9252
X6.0965Y-4.1811
X6.0965Y-4.437
X6.0965Y-4.6929
X6.0965Y-4.9488
X6.0965Y-5.2047
X6.7067Y-3.3843
X6.7067Y-3.4843
X6.9807Y-2.9016
X6.9807Y-3.1575
X6.9807Y-3.4134
X6.9807Y-3.6693
X6.9807Y-3.9252
X6.9807Y-4.1811
X6.9807Y-4.437
X6.9807Y-4.6929
X6.9807Y-4.9488
X6.9807Y-5.2047
X7.0807Y-2.9016
X7.0807Y-3.1575
X7.0807Y-3.4134
X7.0807Y-3.6693
X7.0807Y-3.9252
X7.0807Y-4.1811
X7.0807Y-4.437
X7.0807Y-4.6929
X7.0807Y-4.9488
X7.0807Y-5.2047
X7.6909Y-3.3843
X7.6909Y-3.4843
T3
X4.3642Y-3.0669
X4.561Y-3.0669
X5.3484Y-3.0669
X5.5453Y-3.0669
X6.3327Y-3.0669
X6.5295Y-3.0669
X7.3169Y-3.0669
X7.5138Y-3.0669
T4
X4.7756Y-2.874
X4.7756Y-5.2343
X5.7598Y-2.874
X5.7598Y-5.2343
X6.7441Y-2.874
X6.7441Y-5.2343
X7.7283Y-2.874
X7.7283Y-5.2343
T0
M30
